<mxfile host="app.diagrams.net" modified="2024-02-17T00:57:47.337Z" agent="Mozilla/5.0 (Windows NT 10.0; Win64; x64) AppleWebKit/537.36 (KHTML, like Gecko) Chrome/121.0.0.0 Safari/537.36" etag="gO5lVu6BjVr80xLxJxzy" version="23.1.4" type="github">
  <diagram name="Halaman-1" id="jdxGgYb-opK5xxt-9X0P">
    <mxGraphModel dx="1744" dy="1036" grid="1" gridSize="10" guides="1" tooltips="1" connect="1" arrows="1" fold="1" page="1" pageScale="1" pageWidth="827" pageHeight="1169" math="0" shadow="0">
      <root>
        <mxCell id="0" />
        <mxCell id="1" parent="0" />
        <mxCell id="0EBNeR9qAk5URoS2EdO6-2" value="Analisis Kebutuhan" style="rounded=1;whiteSpace=wrap;html=1;" vertex="1" parent="1">
          <mxGeometry x="170" y="110" width="120" height="60" as="geometry" />
        </mxCell>
        <mxCell id="0EBNeR9qAk5URoS2EdO6-3" value="Perancangan" style="rounded=1;whiteSpace=wrap;html=1;" vertex="1" parent="1">
          <mxGeometry x="320" y="220" width="120" height="60" as="geometry" />
        </mxCell>
        <mxCell id="0EBNeR9qAk5URoS2EdO6-4" value="Implementasi" style="rounded=1;whiteSpace=wrap;html=1;" vertex="1" parent="1">
          <mxGeometry x="480" y="330" width="120" height="60" as="geometry" />
        </mxCell>
        <mxCell id="0EBNeR9qAk5URoS2EdO6-5" value="Pengujian" style="rounded=1;whiteSpace=wrap;html=1;" vertex="1" parent="1">
          <mxGeometry x="620" y="450" width="120" height="60" as="geometry" />
        </mxCell>
        <mxCell id="0EBNeR9qAk5URoS2EdO6-7" value="Pemeliharaan" style="rounded=1;whiteSpace=wrap;html=1;" vertex="1" parent="1">
          <mxGeometry x="780" y="560" width="120" height="60" as="geometry" />
        </mxCell>
      </root>
    </mxGraphModel>
  </diagram>
</mxfile>
